# xmcd
#
# Track frame offsets: 
#        150
#        17701
#        42838
#        63832
#        78876
#        92435
#        111636
#        127319
#        146597
#        170672
#        194790
#        210915
#        236712
#
# Disc length: 3437 seconds
#
# Revision: 0
# Processed by: cddbd v1.5.2PL0 Copyright (c) Steve Scherf et al.
# Submitted via: ExactAudioCopy v0.99pb4
#
DISCID=b90d6b0d
DTITLE=Grey Wolf - The Blues in me
DYEAR=1900
DGENRE=Blues
TTITLE0=How long blues
TTITLE1=Red House
TTITLE2=Little red rooster
TTITLE3=Big Boss Man
TTITLE4=Cocaine Blues
TTITLE5=St James Infirmary
TTITLE6=Rem Factory
TTITLE7=In the pines - Black Gin
TTITLE8=House of the rising sun
TTITLE9=It hurts me too
TTITLE10=i just wonna make love to you
TTITLE11=Season of the witch
TTITLE12=Boom boom boom 
EXTD=
EXTT0=
EXTT1=
EXTT2=
EXTT3=
EXTT4=
EXTT5=
EXTT6=
EXTT7=
EXTT8=
EXTT9=
EXTT10=
EXTT11=
EXTT12=
PLAYORDER=
